<?xml version="1.0" encoding="UTF-8" standalone="no"?>
<!-- Created with Inkscape (http://www.inkscape.org/) -->

<svg
   xmlns:dc="http://purl.org/dc/elements/1.1/"
   xmlns:cc="http://creativecommons.org/ns#"
   xmlns:rdf="http://www.w3.org/1999/02/22-rdf-syntax-ns#"
   xmlns:svg="http://www.w3.org/2000/svg"
   xmlns="http://www.w3.org/2000/svg"
   xmlns:sodipodi="http://sodipodi.sourceforge.net/DTD/sodipodi-0.dtd"
   xmlns:inkscape="http://www.inkscape.org/namespaces/inkscape"
   width="210mm"
   height="93mm"
   viewBox="0 0 744.09449 329.52756"
   id="svg2"
   version="1.1"
   inkscape:version="0.91 r13725"
   sodipodi:docname="bslog-en.svg"
   inkscape:export-filename="/home/moi/bsl.png"
   inkscape:export-xdpi="24.307528"
   inkscape:export-ydpi="24.307528">
  <defs
     id="defs4">
    <style
       id="style4425"
       type="text/css"><![CDATA[
    .fil0 {fill:black}
   ]]></style>
  </defs>
  <sodipodi:namedview
     id="base"
     pagecolor="#ffffff"
     bordercolor="#666666"
     borderopacity="1.0"
     inkscape:pageopacity="0.0"
     inkscape:pageshadow="2"
     inkscape:zoom="0.7071068"
     inkscape:cx="80.011427"
     inkscape:cy="188.11927"
     inkscape:document-units="px"
     inkscape:current-layer="g4184"
     showgrid="false"
     showguides="true"
     inkscape:guide-bbox="true"
     inkscape:object-paths="true"
     inkscape:snap-intersection-paths="true"
     inkscape:snap-midpoints="true"
     inkscape:snap-smooth-nodes="true"
     inkscape:object-nodes="true"
     inkscape:snap-object-midpoints="false"
     inkscape:snap-center="false"
     gridtolerance="10"
     inkscape:snap-nodes="true"
     inkscape:snap-to-guides="true"
     inkscape:snap-grids="true"
     inkscape:snap-others="false"
     inkscape:window-width="1600"
     inkscape:window-height="847"
     inkscape:window-x="0"
     inkscape:window-y="0"
     inkscape:window-maximized="1"
     borderlayer="false" />
  <metadata
     id="metadata7">
    <rdf:RDF>
      <cc:Work
         rdf:about="">
        <dc:format>image/svg+xml</dc:format>
        <dc:type
           rdf:resource="http://purl.org/dc/dcmitype/StillImage" />
        <dc:title />
      </cc:Work>
    </rdf:RDF>
  </metadata>
  <g
     inkscape:label="Camada 1"
     inkscape:groupmode="layer"
     id="layer1"
     transform="translate(0,-722.83465)">
    <g
       id="g4184"
       transform="matrix(1.0142375,0,0,1.0142375,-2.0453952,722.70978)">
      <g
         transform="matrix(1.8798364,0,0,1.8798364,-425.75062,-892.07085)"
         id="g4154">
        <path
           style="color:#000000;font-style:normal;font-variant:normal;font-weight:normal;font-stretch:normal;font-size:medium;line-height:normal;font-family:sans-serif;text-indent:0;text-align:start;text-decoration:none;text-decoration-line:none;text-decoration-style:solid;text-decoration-color:#000000;letter-spacing:normal;word-spacing:normal;text-transform:none;direction:ltr;block-progression:tb;writing-mode:lr-tb;baseline-shift:baseline;text-anchor:start;white-space:normal;clip-rule:nonzero;display:inline;overflow:visible;visibility:visible;opacity:1;isolation:auto;mix-blend-mode:normal;color-interpolation:sRGB;color-interpolation-filters:linearRGB;solid-color:#000000;solid-opacity:1;fill:#ba0000;fill-opacity:1;fill-rule:nonzero;stroke:none;stroke-width:2;stroke-linecap:butt;stroke-linejoin:miter;stroke-miterlimit:4;stroke-dasharray:none;stroke-dashoffset:0;stroke-opacity:1;color-rendering:auto;image-rendering:auto;shape-rendering:auto;text-rendering:auto;enable-background:accumulate"
           d="m 377.85742,499.93359 c 0,0 0,1 0,1 l -1,0 c 0,0 0.99972,1.00001 2.9082,1 1.90849,0 5.72544,3e-5 13.35938,0 10.16007,0 18.375,8.21493 18.375,18.375 0,0.23616 -0.005,0.47387 -0.0137,0.71094 l -0.0332,0.94531 0.94141,0.0859 c 14.12245,1.29809 25.17774,13.16311 25.17774,27.63281 0,15.33775 -12.41225,27.75 -27.75,27.75 l -31.96485,0 0,2 31.96485,0 c 16.41863,0 29.75,-13.33137 29.75,-29.75 0,-15.16808 -11.39579,-27.63306 -26.08008,-29.45312 -0.0433,-11.20416 -9.15299,-20.29688 -20.36719,-20.29688 -7.63394,3e-5 -11.45089,0 -13.35938,0 -0.95424,0 -1.43136,0 -1.66992,0 -0.11928,0 -0.17917,0 -0.20898,0 -0.0149,0 -0.0217,0 -0.0254,0 -0.002,0 -0.003,0 -0.004,0 z"
           id="path3451"
           inkscape:connector-curvature="0" />
        <path
           style="fill:#ba0000;fill-opacity:1;fill-rule:evenodd;stroke:none;stroke-width:2;stroke-linecap:butt;stroke-linejoin:miter;stroke-miterlimit:4;stroke-dasharray:none;stroke-opacity:1"
           d="m 494.92188,500.9375 c -8.09739,0 -15.42792,3.28337 -20.73438,8.58984 -5.30647,5.30646 -8.58789,12.63698 -8.58789,20.73438 l 0,18.84961 0,27.7539 c 2.96866,1.01153 6.14799,1.56836 9.45898,1.56836 16.19479,0 29.32227,-13.12747 29.32227,-29.32226 l 0,-18.84961 0,-27.75586 c -2.96866,-1.01152 -6.14801,-1.56836 -9.45898,-1.56836 z"
           id="path3500"
           inkscape:connector-curvature="0" />
        <path
           style="color:#000000;font-style:normal;font-variant:normal;font-weight:normal;font-stretch:normal;font-size:medium;line-height:normal;font-family:sans-serif;text-indent:0;text-align:start;text-decoration:none;text-decoration-line:none;text-decoration-style:solid;text-decoration-color:#000000;letter-spacing:normal;word-spacing:normal;text-transform:none;direction:ltr;block-progression:tb;writing-mode:lr-tb;baseline-shift:baseline;text-anchor:start;white-space:normal;clip-rule:nonzero;display:inline;overflow:visible;visibility:visible;opacity:1;isolation:auto;mix-blend-mode:normal;color-interpolation:sRGB;color-interpolation-filters:linearRGB;solid-color:#000000;solid-opacity:1;fill:#ba0000;fill-opacity:1;fill-rule:evenodd;stroke:none;stroke-width:2;stroke-linecap:butt;stroke-linejoin:miter;stroke-miterlimit:4;stroke-dasharray:none;stroke-dashoffset:0;stroke-opacity:1;color-rendering:auto;image-rendering:auto;shape-rendering:auto;text-rendering:auto;enable-background:accumulate"
           d="m 494.92188,499.94727 c -8.36761,0 -15.95512,3.39455 -21.44141,8.88085 -5.48631,5.4863 -8.88281,13.07379 -8.88281,21.44141 l 0,45.12695 c -10.45848,-4.16259 -17.86328,-14.32664 -17.86328,-26.27734 l -2,0 c 0,16.73523 13.58703,30.32227 30.32226,30.32227 16.73523,0 30.32422,-13.58704 30.32422,-30.32227 l 0,-45.12695 c 10.45848,4.16259 17.86328,14.32664 17.86328,26.27734 l 2,0 c 0,-16.73523 -13.58704,-30.32226 -30.32226,-30.32226 z m 0,2 c 2.96786,0 5.77171,0.58104 8.45898,1.42578 l 0,45.74609 c 0,15.65435 -12.66987,28.32227 -28.32422,28.32227 -2.96787,0 -5.77172,-0.58105 -8.45898,-1.42579 l 0,-45.74609 c 0,-7.82718 3.17024,-14.90072 8.29687,-20.02734 5.12663,-5.12664 12.20017,-8.29492 20.02735,-8.29492 z"
           id="path3500-6"
           inkscape:connector-curvature="0" />
        <path
           style="color:#000000;font-style:normal;font-variant:normal;font-weight:normal;font-stretch:normal;font-size:medium;line-height:normal;font-family:sans-serif;text-indent:0;text-align:start;text-decoration:none;text-decoration-line:none;text-decoration-style:solid;text-decoration-color:#000000;letter-spacing:normal;word-spacing:normal;text-transform:none;direction:ltr;block-progression:tb;writing-mode:lr-tb;baseline-shift:baseline;text-anchor:start;white-space:normal;clip-rule:nonzero;display:inline;overflow:visible;visibility:visible;opacity:1;isolation:auto;mix-blend-mode:normal;color-interpolation:sRGB;color-interpolation-filters:linearRGB;solid-color:#000000;solid-opacity:1;fill:#ba0000;fill-opacity:1;fill-rule:evenodd;stroke:none;stroke-width:2;stroke-linecap:butt;stroke-linejoin:miter;stroke-miterlimit:4;stroke-dasharray:none;stroke-dashoffset:0;stroke-opacity:1;color-rendering:auto;image-rendering:auto;shape-rendering:auto;text-rendering:auto;enable-background:accumulate"
           d="m 608.87891,573.49414 0,3.93945 -55.20118,0 0,2 57.20118,0 0,-5.93945 -2,0 z"
           id="path3596"
           inkscape:connector-curvature="0" />
        <path
           style="color:#000000;font-style:normal;font-variant:normal;font-weight:normal;font-stretch:normal;font-size:medium;line-height:normal;font-family:sans-serif;text-indent:0;text-align:start;text-decoration:none;text-decoration-line:none;text-decoration-style:solid;text-decoration-color:#000000;letter-spacing:normal;word-spacing:normal;text-transform:none;direction:ltr;block-progression:tb;writing-mode:lr-tb;baseline-shift:baseline;text-anchor:start;white-space:normal;clip-rule:nonzero;display:inline;overflow:visible;visibility:visible;opacity:1;isolation:auto;mix-blend-mode:normal;color-interpolation:sRGB;color-interpolation-filters:linearRGB;solid-color:#000000;solid-opacity:1;fill:#ba0000;fill-opacity:1;fill-rule:nonzero;stroke:none;stroke-width:2;stroke-linecap:butt;stroke-linejoin:miter;stroke-miterlimit:4;stroke-dasharray:none;stroke-dashoffset:0;stroke-opacity:1;color-rendering:auto;image-rendering:auto;shape-rendering:auto;text-rendering:auto;enable-background:accumulate"
           d="m 531.52539,499.93359 0,1 0,78.5 23.15234,0 0,-79.5 z"
           id="rect4400"
           inkscape:connector-curvature="0"
           sodipodi:nodetypes="cccccc" />
        <path
           style="color:#000000;font-style:normal;font-variant:normal;font-weight:normal;font-stretch:normal;font-size:medium;line-height:normal;font-family:sans-serif;text-indent:0;text-align:start;text-decoration:none;text-decoration-line:none;text-decoration-style:solid;text-decoration-color:#000000;letter-spacing:normal;word-spacing:normal;text-transform:none;direction:ltr;block-progression:tb;writing-mode:lr-tb;baseline-shift:baseline;text-anchor:start;white-space:normal;clip-rule:nonzero;display:inline;overflow:visible;visibility:visible;opacity:1;isolation:auto;mix-blend-mode:normal;color-interpolation:sRGB;color-interpolation-filters:linearRGB;solid-color:#000000;solid-opacity:1;fill:#ba0000;fill-opacity:1;fill-rule:nonzero;stroke:none;stroke-width:2;stroke-linecap:butt;stroke-linejoin:miter;stroke-miterlimit:4;stroke-dasharray:none;stroke-dashoffset:0;stroke-opacity:1;color-rendering:auto;image-rendering:auto;shape-rendering:auto;text-rendering:auto;enable-background:accumulate"
           d="m 359.71484,499.93359 0,1 0,78.5 19.14258,0 0,-79.5 z"
           id="rect4402"
           inkscape:connector-curvature="0"
           sodipodi:nodetypes="cccccc" />
      </g>
      <text
         xml:space="preserve"
         style="font-style:normal;font-variant:normal;font-weight:normal;font-stretch:normal;font-size:68.61450195px;line-height:125%;font-family:Quicksand;-inkscape-font-specification:Quicksand;text-align:end;letter-spacing:0px;word-spacing:0px;text-anchor:end;fill:#2b0000;fill-opacity:1;stroke:none;stroke-width:1px;stroke-linecap:butt;stroke-linejoin:miter;stroke-opacity:1"
         x="727.96332"
         y="258.74478"
         id="text4452"
         sodipodi:linespacing="125%"><tspan
           sodipodi:role="line"
           id="tspan4454"
           x="727.96332"
           y="258.74478">Biblical Study Log</tspan></text>
      <text
         xml:space="preserve"
         style="font-style:normal;font-variant:normal;font-weight:normal;font-stretch:normal;font-size:38.52426529px;line-height:125%;font-family:Quicksand;-inkscape-font-specification:Quicksand;text-align:end;letter-spacing:0px;word-spacing:0px;text-anchor:end;fill:#4d4d4d;fill-opacity:1;stroke:none;stroke-width:1px;stroke-linecap:butt;stroke-linejoin:miter;stroke-opacity:1"
         x="725.58984"
         y="304.0506"
         id="text4150"
         sodipodi:linespacing="125%"><tspan
           sodipodi:role="line"
           id="tspan4152"
           x="725.58984"
           y="304.0506">By Moisés P. Sena</tspan></text>
      <g
         transform="matrix(0.01147425,0,0,0.01147425,5.0475838,2.0265588)"
         id="g4438"
         style="clip-rule:evenodd;fill:#ba0000;fill-opacity:1;fill-rule:evenodd;image-rendering:optimizeQuality;shape-rendering:geometricPrecision;text-rendering:geometricPrecision">
        <g
           style="fill:#ba0000;fill-opacity:1"
           id="Camada_x0020_1">
          <metadata
             id="CorelCorpID_0Corel-Layer" />
          <path
             style="fill:#2b0000;fill-opacity:1"
             inkscape:connector-curvature="0"
             class="fil0"
             d="m 6990,12325 c -2042,569 -3260,842 -3959,2617 -103,342 -177,910 -50,1304 313,975 1113,1015 1080,2723 0,823 -461,940 -811,1156 -2245,1336 -2765,3021 -2555,5183 0,737 209,1221 219,1661 l 831,0 c -343,-714 -320,-2241 -188,-3073 205,-1294 1048,-2353 2102,-3056 266,-177 450,-249 656,-481 467,-528 559,-985 559,-1695 0,-783 -289,-1649 -800,-2154 -371,-367 -464,-675 -257,-1195 833,-1717 3643,-2099 4063,-2221 284,-42 557,-72 1014,82 1490,394 2402,219 2404,220 622,182 1639,1185 1639,1946 0,789 -839,1098 -1486,1093 -3368,-152 -5112,3714 -3401,5410 244,242 735,491 1214,491 -59,-162 -253,-211 -381,-318 -1268,-1064 -318,-3640 585,-4200 1048,-649 2285,93 3528,-538 451,-229 798,-648 987,-1111 598,-1462 -781,-2675 -872,-3014 214,-103 514,-120 760,-202 470,-156 989,-324 1420,-547 117,-60 203,-92 321,-159 146,-83 188,-136 384,-141 126,1509 2229,1633 2940,2262 990,875 269,1984 251,2809 186,-136 343,-536 443,-781 330,-806 362,-1568 -180,-2280 -632,-831 -2886,-1110 -2886,-2316 0,-128 109,-159 204,-233 787,-503 1544,-1266 2129,-2330 971,-1767 546,-4011 -1089,-5237 -4523,-3070 -13647,385 -12351,6206 181,812 648,1522 1535,2119 z"
             id="path4429" />
          <path
             style="fill:#ba0000;fill-opacity:1"
             inkscape:connector-curvature="0"
             class="fil0"
             d="M 3338,5755 C 2637,9027 4677,10011 5153,10314 3129,3948 12140,1014 16912,3276 12646,-1125 4232,1581 3337,5755 Z"
             id="path4431" />
        </g>
      </g>
    </g>
  </g>
</svg>
